<svg xmlns="http://www.w3.org/2000/svg" width="480" height="64" viewBox="0 0 120 16"><!-- Original CrownFront artwork, CC BY-SA 4.0. Generated by scripts/generate-crownfront-art.mjs. --><svg x="0" y="0" width="24" height="16" viewBox="0 0 64 64"><circle cx="12" cy="44" r="8" fill="#6a5d47"/><circle cx="25.365883939231587" cy="36" r="8" fill="#6a5d47"/><circle cx="35.637189707302724" cy="44" r="8" fill="#6a5d47"/><circle cx="42.564480032239466" cy="36" r="8" fill="#6a5d47"/><circle cx="48.972790018768286" cy="44" r="8" fill="#6a5d47"/></svg><svg x="24" y="0" width="24" height="16" viewBox="0 0 64 64"><circle cx="15.795938477422345" cy="38" r="9.75" fill="#6a5d47"/><circle cx="25.112292787551684" cy="30" r="9.75" fill="#6a5d47"/><circle cx="31.567219461879567" cy="38" r="9.75" fill="#6a5d47"/><circle cx="38.420042567085666" cy="30" r="9.75" fill="#6a5d47"/><circle cx="48.56426202629363" cy="38" r="9.75" fill="#6a5d47"/></svg><svg x="48" y="0" width="24" height="16" viewBox="0 0 64 64"><circle cx="14.393888576415826" cy="32" r="11.5" fill="#6a5d47"/><circle cx="20.59686708924152" cy="24" r="11.5" fill="#6a5d47"/><circle cx="28.089879529339612" cy="32" r="11.5" fill="#6a5d47"/><circle cx="39.177838697718435" cy="24" r="11.5" fill="#6a5d47"/><circle cx="52.86047995235126" cy="32" r="11.5" fill="#6a5d47"/></svg><svg x="72" y="0" width="24" height="16" viewBox="0 0 64 64"><circle cx="9.713754725030626" cy="26" r="13.25" fill="#6a5d47"/><circle cx="18.002828844098488" cy="18" r="13.25" fill="#6a5d47"/><circle cx="29.966883690002966" cy="26" r="13.25" fill="#6a5d47"/><circle cx="43.80017629512247" cy="18" r="13.25" fill="#6a5d47"/><circle cx="55.9783951164447" cy="26" r="13.25" fill="#6a5d47"/></svg><svg x="96" y="0" width="24" height="16" viewBox="0 0 64 64"><circle cx="8.164302901347446" cy="20" r="15" fill="#6a5d47"/><circle cx="20.882338007204297" cy="12" r="15" fill="#6a5d47"/><circle cx="34.62794639487515" cy="20" r="15" fill="#6a5d47"/><circle cx="45.95743298649353" cy="12" r="15" fill="#6a5d47"/><circle cx="53.64847394096703" cy="20" r="15" fill="#6a5d47"/></svg></svg>
